Coordinates
version=1
nRows=14
nColumns=36
inDegrees=yes

Units are S.I. units (second, meters, Newtons, ...)
If the header above contains a line with 'inDegrees', this indicates whether rotational values are in degrees (yes) or radians (no).

endheader
time	pelvis_tilt	pelvis_list	pelvis_rotation	pelvis_tx	pelvis_ty	pelvis_tz	hip_flexion_r	hip_adduction_r	hip_rotation_r	knee_angle_r	knee_angle_r_beta	ankle_angle_r	subtalar_angle_r	mtp_angle_r	hip_flexion_l	hip_adduction_l	hip_rotation_l	knee_angle_l	knee_angle_l_beta	ankle_angle_l	subtalar_angle_l	mtp_angle_l	lumbar_extension	lumbar_bending	lumbar_rotation	arm_flex_r	arm_add_r	arm_rot_r	elbow_flex_r	pro_sup_r	arm_flex_l	arm_add_l	arm_rot_l	elbow_flex_l	pro_sup_l
      4.45000000	     -7.17697762	      3.00550876	     -1.18439054	      0.40870331	      0.90251982	     -0.06651721	     39.43317300	    -19.74033984	     -5.46471201	     54.05848084	      0.94349848	     17.73902539	     -6.76917758	     -7.49999987	     39.72395793	    -12.23158851	     -8.56359383	     53.86391434	      0.94010265	     14.77096692	     -7.36975219	     -7.49999987	    -32.41289109	      2.49335907	     -0.19549493	     17.79889218	    -19.01058388	      3.88176377	     43.56685177	     74.19891404	     16.80696429	    -17.66418873	     10.36420473	     58.29066763	     66.82730434
      4.45416670	     -6.77659219	      2.87884923	     -1.00960265	      0.40842117	      0.90573442	     -0.06589952	     38.10000576	    -19.71099669	     -6.28587288	     52.83049467	      0.92206608	     17.22045394	     -6.97234327	     -7.49999987	     38.68668111	    -11.93961279	     -8.29321567	     52.76354401	      0.92089757	     14.20662210	     -7.86155169	     -7.49999987	    -32.21338667	      2.65128330	     -0.27389146	     17.88905494	    -18.85551408	      3.78321690	     43.05950575	     74.32146257	     16.84412957	    -17.44760438	     10.49520263	     57.93458501	     66.96997952
      4.45833330	     -6.83226834	      2.79969222	     -1.05981830	      0.41036771	      0.91440502	     -0.06520855	     37.21997849	    -19.38686177	     -6.64532315	     51.28009841	      0.89500656	     16.55796600	     -6.92981483	     -7.49999987	     37.84493636	    -11.82800700	     -8.22931120	     51.27695080	      0.89495162	     13.50996741	     -7.91810595	     -7.49999987	    -31.50641126	      2.63713477	     -0.24671975	     17.64224207	    -18.70524081	      3.80314133	     42.93849250	     74.43576443	     16.49239732	    -17.30066852	     10.62398017	     57.84922092	     67.08075884
      4.46250000	     -6.43601818	      2.69472928	     -1.01479459	      0.41316206	      0.91585034	     -0.06667355	     35.87008087	    -19.24847547	     -7.10417971	     50.01454816	      0.87291854	     16.20652826	     -7.04403815	     -7.49999987	     36.73354816	    -11.67337967	     -8.18209182	     50.23760441	      0.87681161	     13.01875326	     -8.27211582	     -7.49999987	    -31.17291299	      2.76636929	     -0.29418158	     17.50069630	    -18.56883609	      3.77599749	     42.65405183	     74.40680622	     16.31378890	    -17.07142933	     10.76215573	     57.57195806	     67.16623710
      4.46666670	     -6.39923474	      2.58236765	     -0.97183676	      0.41428009	      0.91779558	     -0.06568885	     35.10109260	    -19.05396635	     -7.52360961	     49.01891664	      0.85554149	     16.08304302	     -7.24059679	     -7.49999987	     36.10106777	    -11.64779378	     -8.31233881	     49.30601665	      0.86055233	     12.73387297	     -8.65047429	     -7.49999987	    -30.50540958	      2.85732304	     -0.29113907	     17.26472063	    -18.43428219	      3.78612158	     42.51096088	     74.61132985	     16.01639355	    -16.92802779	     10.89070769	     57.51859405	     67.36290734
      4.47083330	     -6.74702451	      2.53513561	     -1.04076430	      0.41382262	      0.92492116	     -0.06490157	     34.68222813	    -18.75560640	     -7.70866191	     47.66527426	      0.83191597	     15.91259443	     -7.03238675	     -7.49999987	     35.69491491	    -11.51439549	     -8.29868392	     47.92180772	      0.83639333	     12.59506643	     -8.51659038	     -7.49999987	    -29.55616741	      2.83383592	     -0.25317103	     16.93812422	    -18.21984491	      3.86836554	     42.55191081	     74.65408501	     15.67838227	    -16.87602782	     10.97862435	     57.57304655	     67.40170319
      4.47500000	     -6.31011045	      2.38975425	     -0.97558338	      0.41926510	      0.92311513	     -0.06666185	     33.46181298	    -18.75602644	     -8.33780497	     46.84086716	      0.81752736	     15.36393790	     -7.40555119	     -7.49999987	     34.70259636	    -11.47992651	     -8.29821888	     47.20988824	      0.82396799	     12.08141173	     -9.07212716	     -7.49999987	    -29.13297308	      3.08996227	     -0.31655442	     16.85561962	    -18.15738182	      3.89640302	     42.27588892	     74.77170825	     15.37366374	    -16.62342284	     11.23961412	     57.22581465	     67.71338227
      4.47916670	     -6.54281796	      2.33908498	     -1.04376256	      0.41961944	      0.92860409	     -0.06626140	     33.07065442	    -18.56141417	     -8.64428854	     45.97290558	      0.80237857	     15.12053542	     -7.24417136	     -7.49999987	     34.25052487	    -11.40094615	     -8.38026863	     46.18187387	      0.80602575	     12.02430302	     -9.05835321	     -7.49999987	    -28.20446065	      3.15106938	     -0.25052030	     16.47577582	    -18.05501336	      3.96149513	     42.28159738	     74.80133287	     14.93335257	    -16.49282877	     11.32864503	     57.27352870	     67.74587919
      4.48333330	     -6.20432471	      2.15623561	     -1.01603160	      0.42114616	      0.93531688	     -0.06604081	     31.78342464	    -18.34657491	     -9.34285163	     44.64751109	      0.77924607	     14.26986086	     -7.07075717	     -7.49999987	     33.16886483	    -11.29156292	     -8.18033988	     44.95603779	      0.78463088	     11.29337153	     -9.35782429	     -7.49999987	    -27.87886904	      3.42791195	     -0.24757858	     16.44074109	    -18.04466387	      4.07099086	     42.03671706	     75.20359213	     14.77492840	    -16.25999855	     11.38376264	     56.89152613	     68.06427523
      4.48750000	     -6.17314064	      2.08207533	     -0.97781574	      0.42367977	      0.93736266	     -0.06592387	     30.95225383	    -18.18288485	     -9.86770454	     43.52516874	      0.75965750	     13.80699387	     -7.05909712	     -7.49999987	     32.41650094	    -11.16337329	     -8.15314893	     43.82414388	      0.76487560	     10.68804086	     -9.51979526	     -7.49999987	    -27.26730619	      3.52264042	     -0.30557749	     16.21201333	    -17.88178625	      4.13115898	     42.05200961	     75.23524410	     14.45864797	    -16.07471034	     11.41895882	     56.73944394	     68.13672506
      4.49166670	     -6.12751866	      1.97406858	     -0.92149463	      0.42394798	      0.94021839	     -0.06540171	     30.15483387	    -17.96838844	    -10.31711975	     42.41361358	      0.74025720	     13.41242021	     -7.01620440	     -7.49999987	     31.80800143	    -11.09122933	     -8.06535977	     42.82731805	      0.74747771	     10.16723392	     -9.50253320	     -7.49999987	    -26.70498815	      3.65261049	     -0.37044287	     16.03928632	    -17.78100603	      4.18939463	     42.03294772	     75.22321629	     14.22600998	    -15.96120343	     11.50966692	     56.58058183	     68.21367278
      4.49583330	     -6.17378342	      1.89542220	     -0.87913793	      0.42564983	      0.94229208	     -0.06592426	     29.57048464	    -17.80418674	    -10.66819667	     41.49982081	      0.72430851	     13.05341652	     -7.04640555	     -7.49999987	     31.36301551	    -10.98702966	     -7.98322248	     41.99870952	      0.73301576	      9.73741210	     -9.80118137	     -7.49999987	    -26.03433897	      3.74588671	     -0.48047340	     15.85715664	    -17.68900774	      4.26960042	     42.10186827	     74.97562954	     13.93091998	    -15.87503143	     11.63431157	     56.46547341	     68.13868226
      4.50000000	     -6.24352288	      1.76602764	     -0.85486306	      0.42673869	      0.94605607	     -0.06362386	     28.91123712	    -17.47486326	    -11.08618541	     40.44590930	      0.70591429	     13.01843297	     -6.87528633	     -7.49999987	     30.87828406	    -11.06600248	     -7.97395332	     41.10719926	      0.71745597	      9.72267890	     -9.50716066	     -7.49999987	    -25.31215679	      3.72372147	     -0.46665976	     15.54024798	    -17.56463428	      4.33539560	     42.23525972	     74.74531176	     13.68549117	    -15.88658216	     11.73878676	     56.45978020	     68.08074531
      4.50416670	     -6.17469476	      1.59326902	     -0.72582900	      0.42764942	      0.95040899	     -0.06275126	     28.00994576	    -17.12480387	    -11.65353722	     39.21098779	      0.68436084	     12.59213378	     -6.74238436	     -7.49999987	     30.21263686	    -11.07484593	     -7.78671217	     39.97479555	      0.69769180	      9.12674676	     -9.60626822	     -7.49999987	    -24.85730004	      3.72162100	     -0.56412000	     15.46636137	    -17.36143198	      4.38494119	     42.02892188	     74.62323038	     13.54371980	    -15.86767752	     12.02165576	     56.28361161	     68.12099772
